<?xml version="1.0" encoding="UTF-8"?>
<!DOCTYPE svg PUBLIC "-//W3C//DTD SVG 1.1//EN" "http://www.w3.org/Graphics/SVG/1.1/DTD/svg11.dtd">
<!-- Creator: CorelDRAW -->
<svg xmlns="http://www.w3.org/2000/svg" xml:space="preserve" width="6.82666in" height="6.82666in" style="shape-rendering:geometricPrecision; text-rendering:geometricPrecision; image-rendering:optimizeQuality; fill-rule:evenodd; clip-rule:evenodd"
viewBox="0 0 6.82666 6.82666"
 xmlns:xlink="http://www.w3.org/1999/xlink">
 <defs>
  <style type="text/css">
   <![CDATA[
    .fil1 {fill:none}
    .fil0 {fill:#424242}
    .fil2 {fill:#FFFFFE}
   ]]>
  </style>
 </defs>
 <rect class="fil0" width="6.82666" height="6.82666"/>
 <g id="Layer_x0020_1">
  <metadata id="CorelCorpID_0Corel-Layer"/>
  <g id="_286950488">
   <rect id="_286950944" class="fil1" width="6.82666" height="6.82666"/>
   <rect id="_286950344" class="fil1" x="0.853331" y="0.853331" width="5.12" height="5.12"/>
  </g>
  <path class="fil2" d="M5.97333 1.61502l-5.12 0 0 -0.409602 5.12 0 0 0.409602zm0 4.00622l-5.12 0 0 -0.409606 5.12 0 0 0.409606zm0 -0.801244l-4.7104 0 0 -0.409602 4.7104 0 0 0.409602zm0 -0.80124l-4.7104 0 0 -0.409602 4.7104 0 0 0.409602zm0 -0.801248l-3.2768 0 0 -0.409602 3.2768 0 0 0.409602zm0 -0.80124l-2.6624 0 0 -0.409602 2.6624 0 0 0.409602z"/>
 </g>
</svg>
