<?xml version="1.0" encoding="UTF-8"?>
<!DOCTYPE svg PUBLIC "-//W3C//DTD SVG 1.1//EN" "http://www.w3.org/Graphics/SVG/1.1/DTD/svg11.dtd">
<!-- Creator: CorelDRAW -->
<svg xmlns="http://www.w3.org/2000/svg" xml:space="preserve" width="6.82666in" height="6.82666in" style="shape-rendering:geometricPrecision; text-rendering:geometricPrecision; image-rendering:optimizeQuality; fill-rule:evenodd; clip-rule:evenodd"
viewBox="0 0 6.82666 6.82666"
 xmlns:xlink="http://www.w3.org/1999/xlink">
 <defs>
  <style type="text/css">
   <![CDATA[
    .fil1 {fill:none}
    .fil0 {fill:#424242}
    .fil2 {fill:#FFFFFE}
   ]]>
  </style>
 </defs>
 <rect class="fil0" width="6.82666" height="6.82666"/>
 <g id="Layer_x0020_1">
  <metadata id="CorelCorpID_0Corel-Layer"/>
  <g id="_288431816">
   <rect id="_288431936" class="fil1" width="6.82666" height="6.82666"/>
   <rect id="_288431648" class="fil1" x="0.853331" y="0.853331" width="5.12" height="5.12"/>
  </g>
  <path class="fil2" d="M4.02885 3.22129c0.0155827,0.00637008 0.031063,0.0129685 0.0464409,0.0197835 0.104319,0.0462323 0.202685,0.104787 0.293996,0.173142 0.0986732,0.0738583 0.185205,0.162083 0.260071,0.259846 0.0812677,0.10613 0.142831,0.225594 0.18652,0.351752 0.0497835,0.143744 0.0689213,0.296303 0.0704528,0.447909 0.000988189,0.0980866 -0.00965748,0.197563 -0.0258425,0.294201 -0.0205472,0.122681 -0.0620709,0.240937 -0.114382,0.353496 -0.0616614,0.132673 -0.150421,0.25102 -0.252189,0.355531 -0.184657,0.189634 -0.415961,0.311594 -0.668866,0.384004 -0.30048,0.0860315 -0.623362,0.113685 -0.934949,0.112331 -0.16726,-0.000724409 -0.335083,-0.00538189 -0.501953,-0.0172559 -0.11661,-0.00830315 -0.233394,-0.0157283 -0.350185,-0.0211024l-0.0976929 -0.00449213 0 -4.94627 0.0775669 -0.0193898c0.151791,-0.0379449 0.308114,-0.0628031 0.463425,-0.0809882 0.180248,-0.0211024 0.36189,-0.0307717 0.54335,-0.0304449 0.25615,0.000464567 0.526071,0.0241299 0.771732,0.100217 0.190457,0.0589843 0.376839,0.146996 0.526638,0.280654 0.130886,0.116787 0.232657,0.257075 0.296114,0.420846 0.0620118,0.160043 0.0898425,0.328437 0.0887244,0.499854 -0.00114567,0.176323 -0.0407441,0.344307 -0.120512,0.501488 -0.0790512,0.155752 -0.186961,0.291543 -0.320843,0.403957 -0.0739567,0.0620984 -0.15352,0.115606 -0.237618,0.160929zm-1.49491 -0.219559l0.554232 0c0.187587,0 0.378165,-0.029878 0.547909,-0.112854 0.140417,-0.0686339 0.259264,-0.163744 0.344811,-0.295315 0.082874,-0.127469 0.120551,-0.268197 0.120512,-0.420161 -3.54331e-005,-0.125287 -0.0185315,-0.25728 -0.0759764,-0.370051 -0.0498346,-0.0978465 -0.11926,-0.176677 -0.210799,-0.237402 -0.102969,-0.0683031 -0.220299,-0.111815 -0.340512,-0.138331 -0.149039,-0.032874 -0.303354,-0.044811 -0.455756,-0.0443465 -0.119185,0.000362205 -0.241642,0.00201575 -0.360331,0.0133504 -0.0385866,0.00368504 -0.0822913,0.00822047 -0.124091,0.0157323l0 1.58938zm0 0.517173l0 1.90374c0.0484606,0.0069685 0.0979055,0.0107717 0.145602,0.0134488 0.104169,0.00585039 0.20898,0.0069685 0.313303,0.00727165 0.16798,0.000492126 0.335988,-0.0148976 0.500039,-0.0517047 0.145331,-0.0326024 0.283516,-0.0857087 0.409346,-0.165972 0.114945,-0.0733189 0.204772,-0.171528 0.270165,-0.29111 0.075315,-0.13772 0.101146,-0.298035 0.10113,-0.453433 -1.5748e-005,-0.153378 -0.0276181,-0.30698 -0.102874,-0.442122 -0.0668346,-0.120016 -0.157654,-0.218303 -0.272606,-0.293516 -0.124878,-0.0817047 -0.261445,-0.137528 -0.406433,-0.172004 -0.159339,-0.0378858 -0.322661,-0.0545945 -0.486319,-0.0545945l-0.471354 0z"/>
 </g>
</svg>
