<?xml version="1.0" encoding="UTF-8"?>
<!DOCTYPE svg PUBLIC "-//W3C//DTD SVG 1.1//EN" "http://www.w3.org/Graphics/SVG/1.1/DTD/svg11.dtd">
<!-- Creator: CorelDRAW -->
<svg xmlns="http://www.w3.org/2000/svg" xml:space="preserve" width="6.82666in" height="6.82666in" style="shape-rendering:geometricPrecision; text-rendering:geometricPrecision; image-rendering:optimizeQuality; fill-rule:evenodd; clip-rule:evenodd"
viewBox="0 0 6.82666 6.82666"
 xmlns:xlink="http://www.w3.org/1999/xlink">
 <defs>
  <style type="text/css">
   <![CDATA[
    .fil1 {fill:none}
    .fil0 {fill:#424242}
    .fil2 {fill:#FFFFFE}
   ]]>
  </style>
 </defs>
 <rect class="fil0" width="6.82666" height="6.82666"/>
 <g id="Layer_x0020_1">
  <metadata id="CorelCorpID_0Corel-Layer"/>
  <g id="_287236728">
   <rect id="_287236824" class="fil1" width="6.82666" height="6.82666"/>
   <rect id="_287236440" class="fil1" x="0.853331" y="0.853331" width="5.12" height="5.12"/>
  </g>
  <g id="_287236704">
   <path id="_287236416" class="fil2" d="M2.2937 4.27118l-0.843744 0 -0.232429 0.642024 -0.364193 0 0.837807 -2.18084 0.34365 0 0.89265 2.18084 -0.3865 0 -0.24724 -0.642024zm-0.740083 -0.289799l0.630425 0 -0.205909 -0.545268c-0.0408504,-0.108181 -0.0812992,-0.21837 -0.116744,-0.329311 -0.024311,0.0998898 -0.0542323,0.198295 -0.090374,0.294697l-0.217398 0.579882z"/>
   <path id="_287236872" class="fil2" d="M5.04637 4.04754l-1.08182 0 -0.311606 0.860724 -0.564913 0 1.1505 -2.99481 0.508996 0 1.2258 2.99481 -0.595508 0 -0.331453 -0.860724zm-0.551157 -1.47122c-0.0265945,0.0953268 -0.0571496,0.189543 -0.0918976,0.282228l-0.273449 0.72939 0.742472 0 -0.257882 -0.682906c-0.0411732,-0.109031 -0.0816024,-0.218398 -0.119244,-0.328713z"/>
  </g>
 </g>
</svg>
