<?xml version="1.0" encoding="UTF-8"?>
<!DOCTYPE svg PUBLIC "-//W3C//DTD SVG 1.1//EN" "http://www.w3.org/Graphics/SVG/1.1/DTD/svg11.dtd">
<!-- Creator: CorelDRAW -->
<svg xmlns="http://www.w3.org/2000/svg" xml:space="preserve" width="6.82666in" height="6.82666in" style="shape-rendering:geometricPrecision; text-rendering:geometricPrecision; image-rendering:optimizeQuality; fill-rule:evenodd; clip-rule:evenodd"
viewBox="0 0 6.82666 6.82666"
 xmlns:xlink="http://www.w3.org/1999/xlink">
 <defs>
  <style type="text/css">
   <![CDATA[
    .fil1 {fill:none}
    .fil0 {fill:#424242}
    .fil2 {fill:#FFFFFE}
   ]]>
  </style>
 </defs>
 <rect class="fil0" width="6.82666" height="6.82666"/>
 <g id="Layer_x0020_1">
  <metadata id="CorelCorpID_0Corel-Layer"/>
  <g id="_288347728">
   <rect id="_288347032" class="fil1" width="6.82666" height="6.82666"/>
   <rect id="_288347608" class="fil1" x="0.853331" y="0.853331" width="5.12" height="5.12"/>
  </g>
  <g id="_288346456">
   <g>
    <path id="_288346288" class="fil2" d="M1.36794 2.51493l1.47002 0c0.123827,0 0.248543,0.0391063 0.346142,0.11624 0.103217,0.0815748 0.168465,0.199402 0.168465,0.332283l0 0.158106 -0.367047 0 0 -0.158106c0,-0.0135 -0.0164921,-0.0297677 -0.0260394,-0.037315 -0.0334449,-0.0264331 -0.0795591,-0.0374843 -0.12152,-0.0374843l-1.47002 0c-0.0419646,0 -0.0880748,0.0110512 -0.121524,0.0374843 -0.00954724,0.00754724 -0.0260394,0.023815 -0.0260394,0.037315l0 0.899744c0,0.0135 0.0164921,0.0297677 0.0260394,0.037315 0.0334488,0.0264331 0.079563,0.0374843 0.121524,0.0374843l1.47002 0c0.0419606,0 0.0880748,-0.0110512 0.12152,-0.0374843 0.00954724,-0.00754724 0.0260394,-0.023815 0.0260394,-0.037315l0 -0.158102 0.367047 0 0 0.158102c0,0.132882 -0.065248,0.250709 -0.168465,0.332283 -0.0975984,0.0771339 -0.222315,0.11624 -0.346142,0.11624l-1.47002 0c-0.123827,0 -0.248547,-0.0391063 -0.346146,-0.11624 -0.103213,-0.0815748 -0.168465,-0.199402 -0.168465,-0.332283l0 -0.899744c0,-0.132882 0.065252,-0.250709 0.168465,-0.332283 0.0975984,-0.0771339 0.222319,-0.11624 0.346146,-0.11624z"/>
    <path id="_288346264" class="fil2" d="M3.99131 2.51493l1.47002 0c0.122118,0 0.246055,0.0384055 0.343543,0.115457 0.102177,0.080748 0.168461,0.198547 0.168461,0.333067l0 0.899744c0,0.13452 -0.0662795,0.252319 -0.168457,0.333067 -0.0974921,0.0770512 -0.221429,0.115457 -0.343547,0.115457l-1.47002 0c-0.122122,0 -0.246055,-0.0384055 -0.343543,-0.115457 -0.102177,-0.080748 -0.168457,-0.198547 -0.168457,-0.333067l0 -0.158102 0.361831 0 0 0.158102c0,0.0128937 0.0172323,0.0295551 0.0260512,0.0365276 0.0343228,0.027126 0.0815906,0.0382717 0.124118,0.0382717l1.47002 0c0.0425276,0 0.0897992,-0.0111496 0.124122,-0.0382717 0.0088189,-0.00697244 0.0260472,-0.0236339 0.0260472,-0.0365276l0 -0.899744c0,-0.0128898 -0.0172362,-0.0295551 -0.0260512,-0.0365236 -0.0343228,-0.027126 -0.0815906,-0.0382756 -0.124118,-0.0382756l-1.47002 0c-0.0425276,0 -0.0897992,0.0111496 -0.124118,0.0382756 -0.0088189,0.0069685 -0.0260512,0.023626 -0.0260512,0.0365236l0 0.158106 -0.361831 0 0 -0.158106c0,-0.134516 0.0662795,-0.252319 0.168457,-0.333067 0.0974882,-0.0770512 0.221421,-0.115457 0.343543,-0.115457z"/>
   </g>
   <path id="_288346216" class="fil2" d="M2.76213 3.22647l1.3024 0c0.103169,0 0.186862,0.0836929 0.186862,0.186862 0,0.103169 -0.0836929,0.186862 -0.186862,0.186862l-1.3024 0c-0.103169,0 -0.186862,-0.0836929 -0.186862,-0.186862 0,-0.103169 0.0836929,-0.186862 0.186862,-0.186862z"/>
  </g>
 </g>
</svg>
